# xmcd CD database file generated by OrangeCD 4.2
#
# Track frame offsets:
#	183
#	14673
#	36423
#	51865
#
# Disc length: 933 seconds
#
# Revision: 0
# Processed by: cddbd v1.4PL0 Copyright (c) Steve Scherf et al.
# Submitted via: OrangeCD 4.2
#
DISCID=3203a304
DTITLE=Crow, Sheryl - Strong Enough
DYEAR=1995
DGENRE=Country Rock
TTITLE0=Strong Enough
TTITLE1=All By Myself
TTITLE2=Strong Enough (Live At The Borderline)
TTITLE3=Reach Around Jerk
EXTD=
EXTT0=
EXTT1=
EXTT2=
EXTT3=
PLAYORDER=
